<?xml version="1.0" encoding="UTF-8"?>
<svg width="36px" height="36px" viewBox="0 0 36 36" version="1.1" xmlns="http://www.w3.org/2000/svg" xmlns:xlink="http://www.w3.org/1999/xlink">
    <g id="Page-1" stroke="none" stroke-width="1" fill="none" fill-rule="evenodd">
        <g id="logo_googleg_48dp" transform="translate(1.000000, 1.000000)">
            <path d="M33.32,17.3863636 C33.32,16.1809091 33.2118182,15.0218182 33.0109091,13.9090909 L17,13.9090909 L17,20.485 L26.1490909,20.485 C25.755,22.61 24.5572727,24.4104545 22.7568182,25.6159091 L22.7568182,29.8813636 L28.2509091,29.8813636 C31.4654545,26.9218182 33.32,22.5636364 33.32,17.3863636 L33.32,17.3863636 Z" id="Shape" fill="#4285F4"></path>
            <path d="M17,34 C21.59,34 25.4381818,32.4777273 28.2509091,29.8813636 L22.7568182,25.6159091 C21.2345455,26.6359091 19.2872727,27.2386364 17,27.2386364 C12.5722727,27.2386364 8.82454545,24.2481818 7.48772727,20.23 L1.80818182,20.23 L1.80818182,24.6345455 C4.60545455,30.1904545 10.3545455,34 17,34 L17,34 Z" id="Shape" fill="#34A853"></path>
            <path d="M7.48772727,20.23 C7.14772727,19.21 6.95454545,18.1204545 6.95454545,17 C6.95454545,15.8795455 7.14772727,14.79 7.48772727,13.77 L7.48772727,9.36545455 L1.80818182,9.36545455 C0.656818182,11.6604545 0,14.2568182 0,17 C0,19.7431818 0.656818182,22.3395455 1.80818182,24.6345455 L7.48772727,20.23 L7.48772727,20.23 Z" id="Shape" fill="#FBBC05"></path>
            <path d="M17,6.76136364 C19.4959091,6.76136364 21.7368182,7.61909091 23.4986364,9.30363636 L28.3745455,4.42772727 C25.4304545,1.68454545 21.5822727,0 17,0 C10.3545455,0 4.60545455,3.80954545 1.80818182,9.36545455 L7.48772727,13.77 C8.82454545,9.75181818 12.5722727,6.76136364 17,6.76136364 L17,6.76136364 Z" id="Shape" fill="#EA4335"></path>
            <polygon id="Shape" points="0 0 34 0 34 34 0 34"></polygon>
        </g>
    </g>
</svg>
