<svg id="Layer_1" data-name="Layer 1" xmlns="http://www.w3.org/2000/svg" viewBox="0 0 321.12 74.37"><defs><style>.cls-1{fill:#f1a208;}.cls-2{fill:#fff;}</style></defs><title>logo2</title><path class="cls-1" d="M582.21,355.17v-7.52H511.67v70.54h7.52V422h47.58c11,0,19.27-7.14,19.27-18.09V355.17Zm-66.54-3.52h62.54v51.24a11.32,11.32,0,0,1-11.31,11.3H515.67Z" transform="translate(-511.67 -347.65)"/><path class="cls-2" d="M628.32,393.71a20.15,20.15,0,0,1-3,1.51,10.62,10.62,0,0,1-2.78.63,12.19,12.19,0,0,1-5.5-.61,13.56,13.56,0,0,1-4.56-2.72,13.2,13.2,0,0,1-3.11-4.25,12.25,12.25,0,0,1-1.15-5.27,13.2,13.2,0,0,1,1-5.18,13,13,0,0,1,2.93-4.27,12.66,12.66,0,0,1,4.45-2.78,13.5,13.5,0,0,1,5.69-.75,10.23,10.23,0,0,1,2.32.4,12.88,12.88,0,0,1,2,.79L625,374.57a8.92,8.92,0,0,0-2-.67,11.13,11.13,0,0,0-1.82-.14,8.4,8.4,0,0,0-3.49.76,9.88,9.88,0,0,0-2.92,2,9.75,9.75,0,0,0-2,2.92,8.38,8.38,0,0,0-.75,3.48,8.18,8.18,0,0,0,.77,3.52,9.89,9.89,0,0,0,2,2.93,10.61,10.61,0,0,0,2.93,2,8.16,8.16,0,0,0,3.43.75c.44,0,.85,0,1.24-.05a7.73,7.73,0,0,0,1.15-.21,7.51,7.51,0,0,0,1.19-.44c.41-.19.87-.43,1.39-.73Z" transform="translate(-511.67 -347.65)"/><path class="cls-2" d="M637.63,377.26a9,9,0,0,1,3.62.74,9.22,9.22,0,0,1,5,5,9.15,9.15,0,0,1,.74,3.64,9,9,0,0,1-.74,3.62,9.27,9.27,0,0,1-5,4.95,9.25,9.25,0,0,1-7.25,0,9.62,9.62,0,0,1-3-2,9.35,9.35,0,0,1-2-3,9,9,0,0,1-.74-3.62A9.15,9.15,0,0,1,629,383a9.32,9.32,0,0,1,2-3,9.62,9.62,0,0,1,3-2A9.06,9.06,0,0,1,637.63,377.26Zm0,15a5.67,5.67,0,0,0,2.22-.44,5.44,5.44,0,0,0,1.8-1.21,6,6,0,0,0,1.23-1.8,5.7,5.7,0,0,0,0-4.44,6.17,6.17,0,0,0-1.23-1.81,5.79,5.79,0,0,0-1.8-1.22,5.61,5.61,0,0,0-4.45,0,5.74,5.74,0,0,0-3,3,5.59,5.59,0,0,0,0,4.44,5.79,5.79,0,0,0,1.22,1.8,5.54,5.54,0,0,0,1.8,1.21A5.69,5.69,0,0,0,637.63,392.28Z" transform="translate(-511.67 -347.65)"/><path class="cls-2" d="M650.44,395.92V377.26h3.81l0,2.59a5.45,5.45,0,0,1,1.22-1.29,7,7,0,0,1,4.31-1.3,6.77,6.77,0,0,1,3.13.62,4.3,4.3,0,0,1,1.78,1.64,6.36,6.36,0,0,1,.81,2.35,18.4,18.4,0,0,1,.19,2.71v11.34h-3.81V384.33a3,3,0,0,0-.73-2,2.63,2.63,0,0,0-2.13-.87,5.55,5.55,0,0,0-1.79.28,4.41,4.41,0,0,0-1.5.84,4.26,4.26,0,0,0-1.05,1.4,4.6,4.6,0,0,0-.4,2v9.94Z" transform="translate(-511.67 -347.65)"/><path class="cls-2" d="M677.14,395.92l-9.38-18.66h4.55l4.83,9.8,4.83-9.8h4.55Z" transform="translate(-511.67 -347.65)"/><path class="cls-2" d="M696.25,377.23a8.45,8.45,0,0,1,3.33.58,7.38,7.38,0,0,1,2.27,1.45,7.08,7.08,0,0,1,1.45,1.94,10.48,10.48,0,0,1,.81,2.05,9.22,9.22,0,0,1,.31,1.73c0,.5.06.85.06,1v1.82H691a3.24,3.24,0,0,0,.28,1.1,4.83,4.83,0,0,0,.89,1.42,5.15,5.15,0,0,0,4,1.75,11.2,11.2,0,0,0,2.64-.28,12.85,12.85,0,0,0,2.05-.63,9.64,9.64,0,0,0,1.82-.9v3.9a3,3,0,0,1-1,.63,9.79,9.79,0,0,1-1.73.55c-.66.16-1.32.28-2,.39a11.1,11.1,0,0,1-1.75.16,11,11,0,0,1-1.21-.11,8.37,8.37,0,0,1-1.83-.47,10.49,10.49,0,0,1-2.07-1,7.86,7.86,0,0,1-1.92-1.75,8.74,8.74,0,0,1-1.44-2.68,11.68,11.68,0,0,1-.56-3.83,8.73,8.73,0,0,1,.61-3.12,9,9,0,0,1,1.77-2.83,9.26,9.26,0,0,1,2.84-2.07A8.8,8.8,0,0,1,696.25,377.23Zm4.41,7.49a5.4,5.4,0,0,0-.66-2.1,4.9,4.9,0,0,0-1.32-1.47,3.84,3.84,0,0,0-2.39-.67,5.69,5.69,0,0,0-2.56.51,5.27,5.27,0,0,0-1.61,1.19,4.14,4.14,0,0,0-.84,1.4,3.86,3.86,0,0,0-.24,1.14Z" transform="translate(-511.67 -347.65)"/><path class="cls-2" d="M708.54,377.26h3.81v2.31a4.74,4.74,0,0,1,1.4-1.15,10.63,10.63,0,0,1,2-.79,11.62,11.62,0,0,1,3.15-.37v3.82a15,15,0,0,0-2.1.17,9.56,9.56,0,0,0-2.15.58A4.9,4.9,0,0,0,713,382.9a2.2,2.2,0,0,0-.67,1.64v11.38h-3.81Z" transform="translate(-511.67 -347.65)"/><path class="cls-2" d="M732.72,381.64h-4.16v14.28h-3.89V381.64h-2.94v-3.82h2.94v-6.51l3.89-1.36v7.87h4.16Z" transform="translate(-511.67 -347.65)"/><path class="cls-2" d="M737.27,395.92V370h16v3.6H741.09v7.84h9.8V385h-9.8v10.92Z" transform="translate(-511.67 -347.65)"/><path class="cls-2" d="M764,377.26a9,9,0,0,1,3.62.74,9.22,9.22,0,0,1,4.95,5,9.15,9.15,0,0,1,.74,3.64,9,9,0,0,1-.74,3.62,9.27,9.27,0,0,1-4.95,4.95,9.25,9.25,0,0,1-7.25,0,9.62,9.62,0,0,1-3-2,9.35,9.35,0,0,1-2-3,9,9,0,0,1-.74-3.62,9.15,9.15,0,0,1,.74-3.64,9.32,9.32,0,0,1,2-3,9.62,9.62,0,0,1,3-2A9,9,0,0,1,764,377.26Zm0,15a5.67,5.67,0,0,0,2.22-.44,5.44,5.44,0,0,0,1.8-1.21,6,6,0,0,0,1.23-1.8,5.7,5.7,0,0,0,0-4.44,6.17,6.17,0,0,0-1.23-1.81,5.79,5.79,0,0,0-1.8-1.22,5.61,5.61,0,0,0-4.45,0,5.79,5.79,0,0,0-1.8,1.22,6,6,0,0,0-1.22,1.81,5.59,5.59,0,0,0,0,4.44,5.79,5.79,0,0,0,1.22,1.8,5.44,5.44,0,0,0,1.8,1.21A5.69,5.69,0,0,0,764,392.28Z" transform="translate(-511.67 -347.65)"/><path class="cls-2" d="M776.61,377.26h3.82v2.31a4.61,4.61,0,0,1,1.4-1.15,10.63,10.63,0,0,1,2-.79,11.62,11.62,0,0,1,3.15-.37v3.82a15,15,0,0,0-2.1.17,9.79,9.79,0,0,0-2.16.58,5,5,0,0,0-1.66,1.07,2.23,2.23,0,0,0-.66,1.64v11.38h-3.82Z" transform="translate(-511.67 -347.65)"/><path class="cls-2" d="M789.81,395.92V377.26h3.81v2.59a5.45,5.45,0,0,1,1.22-1.29,7.37,7.37,0,0,1,1.69-.89,7.22,7.22,0,0,1,2.61-.41,6,6,0,0,1,2.53.48,6.08,6.08,0,0,1,1.66,1.05,4.29,4.29,0,0,1,.91,1.1,2.31,2.31,0,0,1,.28.63c0,.07.09-.06.28-.39a5,5,0,0,1,1-1.12,8.22,8.22,0,0,1,1.85-1.19,6.79,6.79,0,0,1,2.94-.56,6.17,6.17,0,0,1,2.95.63,6.3,6.3,0,0,1,1.89,1.51,5.64,5.64,0,0,1,1,1.75,4.55,4.55,0,0,1,.3,1.36v13.41h-3.81V384.26a1.91,1.91,0,0,0-.3-1,3.29,3.29,0,0,0-.78-.89,4.5,4.5,0,0,0-1.09-.65,3.29,3.29,0,0,0-1.28-.26,4.49,4.49,0,0,0-3.16,1.12,4.33,4.33,0,0,0-1.23,3.36v9.94h-3.82V384.33a3,3,0,0,0-.73-2,2.65,2.65,0,0,0-2.14-.87,5.65,5.65,0,0,0-1.8.28,4.6,4.6,0,0,0-1.52.84A3.91,3.91,0,0,0,794,384a4.76,4.76,0,0,0-.38,2v9.94Z" transform="translate(-511.67 -347.65)"/><path class="cls-2" d="M825.85,377.3a7.33,7.33,0,0,1,1.79.19,12.83,12.83,0,0,1,1.33.4,9,9,0,0,1,1.12.6l-1.86,2.87a2.28,2.28,0,0,0-.6-.42,3.27,3.27,0,0,0-.74-.32,3.73,3.73,0,0,0-1.06-.14A2.47,2.47,0,0,0,824,381a1.78,1.78,0,0,0-.55,1.23,1.51,1.51,0,0,0,.69,1.38,5.82,5.82,0,0,0,1.72.7c.69.18,1.44.34,2.25.49a7.2,7.2,0,0,1,2.25.81,4.84,4.84,0,0,1,1.72,1.62,5.35,5.35,0,0,1,.69,2.94,5.27,5.27,0,0,1-.48,2.21,5.15,5.15,0,0,1-1.36,1.82,6.81,6.81,0,0,1-2.19,1.22,8.54,8.54,0,0,1-2.91.46,9,9,0,0,1-2.27-.26,10.49,10.49,0,0,1-1.73-.63,8,8,0,0,1-1.31-.79c-.38-.28-.71-.51-1-.7l1.89-2.87a8.41,8.41,0,0,0,2.7,1.57,6.84,6.84,0,0,0,1.71.39,3.32,3.32,0,0,0,2.42-.65,2.49,2.49,0,0,0,.59-1.77,1.84,1.84,0,0,0-.68-1.59,5.49,5.49,0,0,0-1.7-.82,21.1,21.1,0,0,0-2.22-.56,8.45,8.45,0,0,1-2.22-.77,4.76,4.76,0,0,1-1.7-1.49,4.66,4.66,0,0,1-.68-2.71,4.33,4.33,0,0,1,2-3.82,6.61,6.61,0,0,1,2-.87A8.89,8.89,0,0,1,825.85,377.3Z" transform="translate(-511.67 -347.65)"/><path class="cls-1" d="M550,393.72a20,20,0,0,1-3,1.5,10.62,10.62,0,0,1-2.78.63,12.19,12.19,0,0,1-5.5-.61,13.44,13.44,0,0,1-4.56-2.71,13.09,13.09,0,0,1-3.11-4.26,12.24,12.24,0,0,1-1.15-5.26,13.17,13.17,0,0,1,1-5.18,12.75,12.75,0,0,1,7.38-7.06A13.5,13.5,0,0,1,544,370a9.71,9.71,0,0,1,2.32.41,12.88,12.88,0,0,1,2,.78l-1.68,3.36a8.32,8.32,0,0,0-2-.66,10.12,10.12,0,0,0-1.82-.14,8.39,8.39,0,0,0-3.49.75,9.73,9.73,0,0,0-4.93,4.94,8.31,8.31,0,0,0-.75,3.48,8.21,8.21,0,0,0,.77,3.52,9.94,9.94,0,0,0,5,4.93,8.16,8.16,0,0,0,3.43.75,12.23,12.23,0,0,0,1.24-.05,7.73,7.73,0,0,0,1.15-.21,7.89,7.89,0,0,0,1.19-.44,14.84,14.84,0,0,0,1.39-.73Z" transform="translate(-511.67 -347.65)"/><path class="cls-1" d="M558.68,373.77a3.22,3.22,0,0,0-1.24.36,1.21,1.21,0,0,0-.54.72,4.69,4.69,0,0,0-.12,1.16v1.85h4.16v3.82h-4.16v14.24H553V381.68h-3v-3.82h3v-1.92a5.87,5.87,0,0,1,.84-3.4,5,5,0,0,1,2.06-1.73,8,8,0,0,1,2.61-.65c.92-.07,1.75-.1,2.5-.1v3.6A18.67,18.67,0,0,0,558.68,373.77Z" transform="translate(-511.67 -347.65)"/></svg>