<?xml version="1.0" encoding="UTF-8"?>
<svg width="17px" height="17px" viewBox="0 0 17 17" version="1.1" xmlns="http://www.w3.org/2000/svg" xmlns:xlink="http://www.w3.org/1999/xlink">
    <title>life-ring.3</title>
    <g id="Installation-Progress-UI" stroke="none" stroke-width="1" fill="none" fill-rule="evenodd">
        <g id="Installation-1-Copy-5" transform="translate(-382.000000, -960.000000)" fill="#FFFFFF" fill-rule="nonzero">
            <g id="Group-3" transform="translate(44.000000, 952.000000)">
                <g id="Group-2-Copy-4" transform="translate(314.000000, 0.000000)">
                    <g id="life-ring.3" transform="translate(24.000000, 8.000000)">
                        <path d="M8.5,0 C6.96908546,0 5.55241879,0.382728636 4.25,1.14818591 C2.94758121,1.91364318 1.91364318,2.94758121 1.14818591,4.25 C0.382728636,5.55241879 0,6.96908546 0,8.5 C0,10.0309145 0.382728636,11.4475812 1.14818591,12.75 C1.91364318,14.0524188 2.94758121,15.0863568 4.25,15.8518141 C5.55241879,16.6172714 6.96908546,17 8.5,17 C10.0309145,17 11.4475812,16.6172714 12.75,15.8518141 C14.0524188,15.0863568 15.0863568,14.0524188 15.8518141,12.75 C16.6172714,11.4475812 17,10.0309145 17,8.5 C17,6.96908546 16.6172714,5.55241879 15.8518141,4.25 C15.0863568,2.94758121 14.0524188,1.91364318 12.75,1.14818591 C11.4475812,0.382728636 10.0309145,0 8.5,0 Z M14.4637065,4.11290606 L12.2701566,6.27218393 C11.8817153,5.63240049 11.3676018,5.11828699 10.7278161,4.72984343 L12.8870939,2.53629353 C13.4811813,2.99328504 14.0067189,3.51882255 14.4637065,4.11290606 Z M8.5,11.7903307 C7.58602088,11.7903307 6.80913765,11.470439 6.16935031,10.8306555 C5.52956687,10.1908721 5.20967516,9.41398887 5.20967516,8.50000585 C5.20967516,7.58602673 5.52956687,6.8091435 6.16935031,6.16935616 C6.80913375,5.52957272 7.58601698,5.209681 8.5,5.209681 C9.41397912,5.209681 10.1908624,5.52957272 10.8306497,6.16935616 C11.4704331,6.8091396 11.7903248,7.58602283 11.7903248,8.50000585 C11.7903248,9.41398497 11.4704331,10.1908682 10.8306497,10.8306555 C10.1908663,11.470439 9.41398302,11.7903307 8.5,11.7903307 Z M4.11290021,2.53629938 L6.27217808,4.72984928 C5.63239464,5.1182905 5.11828114,5.632404 4.72983758,6.27218978 L2.53628768,4.11291191 C2.99327919,3.5188245 3.5188167,2.99328699 4.11290021,2.53629938 Z M2.53628768,12.8871056 L4.72983758,10.7278278 C5.1182788,11.3676112 5.6323923,11.8817247 6.27217808,12.2701683 L4.11290021,14.4637182 C3.5188128,14.0067267 2.99327529,13.4811891 2.53628768,12.8871056 L2.53628768,12.8871056 Z M12.8870939,14.4637182 L10.7278161,12.2701683 C11.3675995,11.881727 11.881713,11.3676135 12.2701566,10.7278278 L14.4637065,12.8871056 C14.006715,13.481193 13.4811774,14.0067306 12.8870939,14.4637182 Z" id="Shape"></path>
                    </g>
                </g>
            </g>
        </g>
    </g>
</svg>