<?xml version="1.0" encoding="UTF-8"?>
<svg width="164px" height="48px" viewBox="0 0 164 48" version="1.1" xmlns="http://www.w3.org/2000/svg" xmlns:xlink="http://www.w3.org/1999/xlink">
    <title>komento-white</title>
    <g id="komento-white" stroke="none" stroke-width="1" fill="none" fill-rule="evenodd">
        <g id="Group" fill-rule="nonzero">
            <path d="M54.706,31 L54.706,24.968 L60.036,31 L63.624,31 L57.254,23.902 L63.39,17.792 L59.776,17.792 L54.706,22.888 L54.706,11.812 L51.872,11.812 L51.872,31 L54.706,31 Z M72.49,31.52 C76.702,31.52 79.666,28.582 79.666,24.396 C79.666,20.21 76.702,17.272 72.49,17.272 C68.252,17.272 65.314,20.21 65.314,24.396 C65.314,28.582 68.252,31.52 72.49,31.52 Z M72.49,28.998 C69.942,28.998 68.148,27.074 68.148,24.396 C68.148,21.718 69.942,19.794 72.49,19.794 C75.012,19.794 76.858,21.718 76.858,24.396 C76.858,27.074 75.012,28.998 72.49,28.998 Z M85.594,31 L85.594,23.252 C85.594,21.172 86.842,19.794 88.714,19.794 C90.534,19.794 91.704,21.172 91.704,23.252 L91.704,31 L94.538,31 L94.538,23.252 C94.538,21.25 95.864,19.794 97.71,19.794 C99.504,19.82 100.778,21.25 100.778,23.252 L100.778,31 L103.586,31 L103.586,23.018 C103.586,19.664 101.402,17.298 98.308,17.298 C96.41,17.298 94.746,18.26 93.836,19.768 C93.056,18.26 91.34,17.272 89.286,17.272 C87.7,17.272 86.322,18.026 85.49,19.3 L85.49,17.792 L82.76,17.792 L82.76,31 L85.594,31 Z M113.544,31.52 C116.56,31.52 119.29,29.648 120.044,27.048 L117.392,26.658 C116.898,28.114 115.26,29.154 113.492,29.154 C111.334,29.154 109.696,27.594 109.358,25.254 L120.486,25.28 C120.512,24.968 120.538,24.578 120.538,24.266 C120.538,20.184 117.626,17.272 113.518,17.272 C109.41,17.272 106.446,20.184 106.446,24.24 C106.446,28.478 109.41,31.52 113.544,31.52 Z M117.6,23.174 L109.384,23.174 C109.748,21.068 111.308,19.638 113.44,19.638 C115.624,19.638 117.288,21.094 117.6,23.174 Z M126.492,31 L126.492,23.408 C126.492,21.302 128.13,19.794 130.106,19.794 C132.082,19.794 133.252,21.198 133.252,23.148 L133.252,31 L136.06,31 L136.06,22.94 C136.06,19.664 133.954,17.272 130.73,17.272 C129.014,17.272 127.376,18.104 126.44,19.482 L126.44,17.792 L123.658,17.792 L123.658,31 L126.492,31 Z M144.588,31.52 C145.316,31.52 146.252,31.39 146.928,31.156 L146.928,28.894 C146.434,29.05 145.81,29.128 145.446,29.128 C144.25,29.128 143.522,28.296 143.522,27.1 L143.522,20.002 L146.746,20.002 L146.746,17.792 L143.522,17.792 L143.522,14.594 L141.208,14.594 L140.844,17.792 L138.66,17.792 L138.66,20.002 L140.688,20.002 L140.688,27.282 C140.688,29.804 142.222,31.52 144.588,31.52 Z M156.574,31.52 C160.786,31.52 163.75,28.582 163.75,24.396 C163.75,20.21 160.786,17.272 156.574,17.272 C152.336,17.272 149.398,20.21 149.398,24.396 C149.398,28.582 152.336,31.52 156.574,31.52 Z M156.574,28.998 C154.026,28.998 152.232,27.074 152.232,24.396 C152.232,21.718 154.026,19.794 156.574,19.794 C159.096,19.794 160.942,21.718 160.942,24.396 C160.942,27.074 159.096,28.998 156.574,28.998 Z" id="komento" fill="#FFFFFF"></path>
            <g id="komento-128" fill="#F2765B">
                <path d="M35.5385612,31.1693672 C35.5282777,31.5464175 35.4262049,31.9161502 35.2441496,32.2458285 L35.2506244,32.2489096 C35.057143,32.5924528 34.7767474,32.8913201 34.4145412,33.1039164 L28.2974077,36.7064991 L28.2981695,36.7064991 L22.1939855,40.3005317 C21.8184489,40.521601 21.4055872,40.6225072 20.9999619,40.6148045 C20.5939558,40.6225072 20.1818558,40.521601 19.8051766,40.3005317 L13.7017544,36.7064991 L7.58462088,33.1039164 C7.22241467,32.8913201 6.94133351,32.5924528 6.74937565,32.2489096 L6.75623129,32.2458285 C6.5730334,31.9161502 6.47134144,31.5464175 6.46067711,31.1693672 L6.46067711,16.8310572 C6.47134144,16.4540069 6.5730334,16.0842743 6.75623129,15.7549811 L6.74937565,15.7511297 C6.94133351,15.4079716 7.22241467,15.1094895 7.58462088,14.8961229 L13.7017544,11.2943105 L19.8051766,7.69981572 C20.1818558,7.47836125 20.5939558,7.37745504 20.9999619,7.38477267 C21.4055872,7.37745504 21.8184489,7.47836125 22.1939855,7.69981572 L28.2981695,11.2943105 L28.2974077,11.2943105 L34.4145412,14.8961229 C34.7767474,15.1094895 35.057143,15.4079716 35.2506244,15.7511297 L35.2441496,15.7549811 C35.4262049,16.0842743 35.5282777,16.4540069 35.5385612,16.8310572 L35.5377994,17.0193898 L35.5377994,30.9814198 L35.5385612,31.1693672 Z M41.9984765,34.0833228 L41.9984765,13.9163314 L42,13.6455792 C41.9843844,13.1002235 41.8377499,12.5660368 41.5745696,12.0903912 L41.5840913,12.0846141 C41.3052953,11.5889412 40.9004318,11.1579716 40.3767373,10.8502462 L31.5408863,5.64741426 L31.541648,5.64702912 L22.7249166,0.456136494 C22.1814169,0.136086652 21.5853572,-0.00988072489 20.9999619,0.000518006443 C20.4138049,-0.00988072489 19.8188878,0.136086652 19.2750072,0.456136494 L10.4582758,5.64702912 L10.4582758,5.64741426 L1.62326274,10.8502462 C1.1003299,11.1579716 0.694323786,11.5889412 0.415908708,12.0846141 L0.426573033,12.0903912 C0.1622501,12.5660368 0.0144730136,13.1002235 0,13.6455792 L0,34.3548452 C0.0144730136,34.9005861 0.1622501,35.4343876 0.426573033,35.9100333 L0.415908708,35.9150401 C0.694323786,36.4099427 1.1003299,36.8420677 1.62326274,37.1501783 L10.4582758,42.352548 L10.4582758,42.3533183 L19.2750072,47.5445961 C19.8188878,47.8642608 20.4138049,48.0102281 20.9999619,47.9994443 C21.5853572,48.0102281 22.1814169,47.8642608 22.7249166,47.5445961 L31.541648,42.3533183 L31.5408863,42.352548 L40.3767373,37.1501783 C40.9004318,36.8420677 41.3052953,36.4099427 41.5840913,35.9150401 L41.5745696,35.9100333 C41.8377499,35.4343876 41.9843844,34.9005861 42,34.3548452 L41.9984765,34.0833228 Z" id="Shape"></path>
                <path d="M28.9992167,28.3724326 L28.9992167,20.6492007 L29,20.5452793 C28.9945168,20.3366402 28.9381181,20.1319827 28.8378537,19.9496225 L28.8417703,19.9472335 C28.7352394,19.7577063 28.5809263,19.5924673 28.3819642,19.4746101 L25.016058,17.4817877 L21.6579849,15.4937433 C21.450798,15.3715063 21.2232449,15.3153648 21,15.3193465 C20.7775384,15.3153648 20.550377,15.3715063 20.3427984,15.4937433 L16.983942,17.4817877 L13.6188192,19.4746101 C13.4194654,19.5924673 13.2647606,19.7577063 13.1586214,19.9472335 L13.1629296,19.9496225 C13.0622736,20.1319827 13.0062665,20.3366402 13,20.5452793 L13,28.4767522 C13.0062665,28.6849932 13.0622736,28.8896507 13.1629296,29.0716127 L13.1586214,29.0740017 C13.2647606,29.2635288 13.4194654,29.4283697 13.6188192,29.5466251 L16.983942,31.5390493 L16.983942,31.5398456 L20.3427984,33.5274919 C20.550377,33.6505253 20.7775384,33.7062685 21,33.7018887 C21.2232449,33.7062685 21.450798,33.6505253 21.6579849,33.5274919 L25.016058,31.5398456 L25.016058,31.5390493 L28.3819642,29.5466251 C28.5809263,29.4283697 28.7352394,29.2635288 28.8417703,29.0740017 L28.8378537,29.0716127 C28.9381181,28.8896507 28.9945168,28.6849932 29,28.4767522 L28.9992167,28.3724326 Z" id="Shape"></path>
            </g>
        </g>
    </g>
</svg>